<svg width="32" height="33" viewBox="0 0 32 33" fill="none" xmlns="http://www.w3.org/2000/svg">
<g id="icons8:old-time-camera" clip-path="url(#clip0_2_632)">
<circle id="Ellipse 35" cx="16" cy="16" r="16" fill="#12C2E9"/>
<path id="Vector" d="M12.5385 9L12.2977 9.31231L11.3846 10.5385H10.6154V9.76923H7.53846V10.5385H6V24.3846H26V10.5385H20.6154L19.7015 9.31231L19.4615 9H12.5385ZM13.3077 10.5385H18.6923L19.6062 11.7646L19.8462 12.0769H24.4615V15.1538H19.99C19.1885 13.7815 17.6977 12.8462 16 12.8462C14.3031 12.8462 12.8115 13.7815 12.0092 15.1538H7.53846V12.0769H12.1538L12.3946 11.7646L13.3077 10.5385ZM21.3846 12.8462V14.3846H22.9231V12.8462H21.3846ZM16 14.3846C17.7077 14.3846 19.0769 15.7538 19.0769 17.4615C19.0769 19.1692 17.7077 20.5385 16 20.5385C14.2923 20.5385 12.9231 19.1692 12.9231 17.4615C12.9231 15.7538 14.2923 14.3846 16 14.3846ZM7.53846 16.6923H11.4569C11.4117 16.9463 11.3876 17.2036 11.3846 17.4615C11.3846 20.0015 13.46 22.0769 16 22.0769C18.54 22.0769 20.6154 20.0015 20.6154 17.4615C20.6154 17.2023 20.5846 16.94 20.5431 16.6923H24.4615V22.8462H7.53846V16.6923Z" fill="white"/>
</g>
<defs>
<clipPath id="clip0_2_632">
<rect width="32" height="32" fill="white" transform="translate(0 0.5)"/>
</clipPath>
</defs>
</svg>
