<svg width="25" height="25" viewBox="0 0 25 25" fill="none" xmlns="http://www.w3.org/2000/svg">
<g id="ic:round-plus">
<path id="Vector" d="M18.5 13.498H13.5V18.498C13.5 18.7632 13.3946 19.0176 13.2071 19.2051C13.0196 19.3926 12.7652 19.498 12.5 19.498C12.2348 19.498 11.9804 19.3926 11.7929 19.2051C11.6054 19.0176 11.5 18.7632 11.5 18.498V13.498H6.5C6.23478 13.498 5.98043 13.3926 5.79289 13.2051C5.60536 13.0176 5.5 12.7632 5.5 12.498C5.5 12.2328 5.60536 11.9784 5.79289 11.7909C5.98043 11.6034 6.23478 11.498 6.5 11.498H11.5V6.498C11.5 6.23278 11.6054 5.97843 11.7929 5.79089C11.9804 5.60336 12.2348 5.498 12.5 5.498C12.7652 5.498 13.0196 5.60336 13.2071 5.79089C13.3946 5.97843 13.5 6.23278 13.5 6.498V11.498H18.5C18.7652 11.498 19.0196 11.6034 19.2071 11.7909C19.3946 11.9784 19.5 12.2328 19.5 12.498C19.5 12.7632 19.3946 13.0176 19.2071 13.2051C19.0196 13.3926 18.7652 13.498 18.5 13.498Z" fill="#12C2E9"/>
</g>
</svg>
